<svg xmlns="http://www.w3.org/2000/svg" xmlns:xlink="http://www.w3.org/1999/xlink" width="480" zoomAndPan="magnify" viewBox="0 0 360 359.999987" height="480" preserveAspectRatio="xMidYMid meet" version="1.0"><defs><clipPath id="1434118e43"><path d="M 180 0 C 80.589844 0 0 80.589844 0 180 C 0 279.410156 80.589844 360 180 360 C 279.410156 360 360 279.410156 360 180 C 360 80.589844 279.410156 0 180 0 Z M 180 0 " clip-rule="nonzero"/></clipPath><clipPath id="a94bffb183"><path d="M 0 0 L 360 0 L 360 360 L 0 360 Z M 0 0 " clip-rule="nonzero"/></clipPath><clipPath id="90fa551908"><path d="M 180 0 C 80.589844 0 0 80.589844 0 180 C 0 279.410156 80.589844 360 180 360 C 279.410156 360 360 279.410156 360 180 C 360 80.589844 279.410156 0 180 0 Z M 180 0 " clip-rule="nonzero"/></clipPath><clipPath id="6edae374c9"><rect x="0" width="360" y="0" height="360"/></clipPath><clipPath id="3070a41b97"><path d="M 85.398438 7.207031 L 144 7.207031 L 144 106 L 85.398438 106 Z M 85.398438 7.207031 " clip-rule="nonzero"/></clipPath><clipPath id="4f90bbf3e7"><path d="M 85.761719 52.238281 L 274.398438 52.238281 L 274.398438 352.78125 L 85.761719 352.78125 Z M 85.761719 52.238281 " clip-rule="nonzero"/></clipPath></defs><rect x="-36" width="432" fill="#ffffff" y="-35.999999" height="431.999984" fill-opacity="1"/><rect x="-36" width="432" fill="#ffffff" y="-35.999999" height="431.999984" fill-opacity="1"/><g clip-path="url(#1434118e43)"><g><g clip-path="url(#6edae374c9)"><g clip-path="url(#a94bffb183)"><g clip-path="url(#90fa551908)"><rect x="-79.2" width="518.4" fill="#b27409" height="518.399981" y="-79.199997" fill-opacity="1"/></g></g></g></g></g><g clip-path="url(#3070a41b97)"><path fill="#fffff6" d="M 107.847656 34.988281 C 108.007812 34.921875 108.117188 34.777344 108.140625 34.605469 C 108.160156 34.433594 108.089844 34.265625 107.949219 34.164062 L 101.457031 29.375 L 109.929688 32.480469 C 110.085938 32.535156 110.257812 32.507812 110.386719 32.40625 C 110.519531 32.304688 110.585938 32.144531 110.570312 31.980469 L 108.351562 10.988281 L 116.285156 30.3125 C 116.351562 30.476562 116.503906 30.589844 116.679688 30.605469 C 116.847656 30.613281 117.023438 30.542969 117.121094 30.394531 L 120.523438 25.289062 L 117.683594 32.398438 C 117.621094 32.558594 117.648438 32.742188 117.753906 32.875 C 117.859375 33.007812 118.027344 33.078125 118.199219 33.046875 L 138.667969 29.882812 L 119.519531 37.109375 C 119.355469 37.171875 119.234375 37.324219 119.214844 37.5 C 119.195312 37.679688 119.277344 37.855469 119.425781 37.953125 L 126.671875 42.773438 L 118.828125 39.644531 C 118.664062 39.582031 118.484375 39.605469 118.347656 39.71875 C 118.214844 39.828125 118.152344 40 118.183594 40.171875 L 127.933594 94.757812 L 113.421875 42.707031 C 113.375 42.53125 113.230469 42.398438 113.050781 42.363281 C 113.019531 42.359375 112.992188 42.355469 112.964844 42.355469 C 112.8125 42.355469 112.667969 42.425781 112.578125 42.550781 L 108.175781 48.523438 L 110.921875 41.019531 C 110.980469 40.867188 110.949219 40.695312 110.851562 40.5625 C 110.75 40.433594 110.582031 40.363281 110.421875 40.382812 L 89.257812 42.617188 Z M 86.042969 43.917969 L 109.761719 41.410156 L 106.128906 51.328125 C 106.050781 51.550781 106.144531 51.796875 106.351562 51.910156 C 106.558594 52.019531 106.820312 51.964844 106.960938 51.773438 L 112.765625 43.902344 L 129.707031 104.675781 C 129.765625 104.886719 129.957031 105.027344 130.167969 105.027344 C 130.199219 105.027344 130.238281 105.023438 130.273438 105.011719 C 130.519531 104.957031 130.679688 104.714844 130.636719 104.464844 L 119.273438 40.847656 L 130.574219 45.359375 C 130.800781 45.449219 131.0625 45.355469 131.175781 45.140625 C 131.289062 44.921875 131.21875 44.65625 131.015625 44.519531 L 120.726562 37.671875 L 143.292969 29.15625 C 143.519531 29.070312 143.648438 28.824219 143.585938 28.585938 C 143.523438 28.351562 143.285156 28.203125 143.050781 28.238281 L 118.878906 31.976562 L 123.109375 21.382812 C 123.199219 21.15625 123.101562 20.898438 122.886719 20.785156 C 122.671875 20.671875 122.402344 20.738281 122.269531 20.941406 L 116.824219 29.121094 L 107.96875 7.542969 C 107.878906 7.320312 107.644531 7.203125 107.410156 7.261719 C 107.179688 7.316406 107.027344 7.535156 107.054688 7.773438 L 109.539062 31.320312 L 98.652344 27.332031 C 98.429688 27.253906 98.183594 27.34375 98.070312 27.554688 C 97.957031 27.761719 98.015625 28.023438 98.207031 28.164062 L 106.699219 34.429688 L 85.8125 43 C 85.59375 43.089844 85.472656 43.328125 85.53125 43.558594 C 85.589844 43.789062 85.8125 43.949219 86.042969 43.917969 " fill-opacity="1" fill-rule="nonzero"/></g><path fill="#fffff6" d="M 199.851562 176.628906 C 199.902344 176.628906 199.953125 176.621094 200 176.605469 C 203.054688 175.613281 205.164062 172.667969 204.902344 169.753906 C 204.878906 169.488281 204.628906 169.292969 204.386719 169.320312 C 204.125 169.34375 203.929688 169.574219 203.953125 169.835938 C 204.171875 172.320312 202.347656 174.839844 199.707031 175.699219 C 199.457031 175.78125 199.316406 176.050781 199.398438 176.300781 C 199.464844 176.503906 199.652344 176.628906 199.851562 176.628906 " fill-opacity="1" fill-rule="nonzero"/><path fill="#fffff6" d="M 211.78125 162.738281 C 211.808594 162.738281 211.835938 162.734375 211.863281 162.730469 C 214.695312 162.246094 216.886719 159.285156 216.554688 156.398438 C 216.523438 156.132812 216.273438 155.953125 216.027344 155.976562 C 215.765625 156.007812 215.578125 156.242188 215.605469 156.507812 C 215.882812 158.914062 214.058594 161.386719 211.703125 161.789062 C 211.441406 161.835938 211.269531 162.082031 211.3125 162.339844 C 211.351562 162.574219 211.554688 162.738281 211.78125 162.738281 " fill-opacity="1" fill-rule="nonzero"/><path fill="#fffff6" d="M 219.003906 177.898438 C 219.03125 177.898438 219.058594 177.898438 219.085938 177.894531 C 221.066406 177.5625 222.585938 175.589844 222.398438 173.589844 C 222.375 173.324219 222.136719 173.140625 221.878906 173.15625 C 221.617188 173.183594 221.425781 173.414062 221.449219 173.675781 C 221.585938 175.171875 220.40625 176.707031 218.925781 176.953125 C 218.664062 176.996094 218.488281 177.242188 218.535156 177.503906 C 218.574219 177.734375 218.773438 177.898438 219.003906 177.898438 " fill-opacity="1" fill-rule="nonzero"/><path fill="#fffff6" d="M 197.984375 199.667969 C 197.726562 199.601562 197.46875 199.753906 197.402344 200.007812 C 197.234375 200.664062 196.621094 201.203125 195.949219 201.28125 C 195.6875 201.316406 195.5 201.550781 195.53125 201.8125 C 195.5625 202.054688 195.765625 202.234375 196.003906 202.234375 C 196.023438 202.234375 196.042969 202.234375 196.0625 202.230469 C 197.128906 202.101562 198.058594 201.285156 198.324219 200.246094 C 198.390625 199.992188 198.238281 199.734375 197.984375 199.667969 " fill-opacity="1" fill-rule="nonzero"/><path fill="#fffff6" d="M 185.050781 198.375 C 185.320312 198.421875 185.59375 198.445312 185.863281 198.445312 C 187.359375 198.445312 188.832031 197.765625 189.78125 196.597656 C 189.945312 196.394531 189.914062 196.09375 189.710938 195.925781 C 189.503906 195.761719 189.207031 195.792969 189.039062 195.996094 C 188.148438 197.097656 186.609375 197.675781 185.214844 197.4375 C 184.953125 197.390625 184.707031 197.566406 184.664062 197.824219 C 184.617188 198.085938 184.792969 198.332031 185.050781 198.375 " fill-opacity="1" fill-rule="nonzero"/><path fill="#fffff6" d="M 195.285156 193.09375 C 195.386719 193.101562 195.484375 193.105469 195.585938 193.105469 C 197.476562 193.105469 199.285156 191.632812 199.621094 189.753906 C 199.667969 189.496094 199.496094 189.246094 199.238281 189.199219 C 198.972656 189.160156 198.726562 189.328125 198.683594 189.585938 C 198.414062 191.074219 196.867188 192.261719 195.367188 192.144531 C 195.113281 192.140625 194.871094 192.316406 194.851562 192.578125 C 194.828125 192.839844 195.023438 193.074219 195.285156 193.09375 " fill-opacity="1" fill-rule="nonzero"/><g clip-path="url(#4f90bbf3e7)"><path fill="#fffff6" d="M 255.199219 316.339844 C 251.347656 320.757812 247.367188 325.328125 242.339844 328.523438 C 240.175781 329.898438 237.703125 331.109375 234.320312 332.441406 C 225.492188 335.917969 216.222656 338.089844 206.765625 338.894531 C 201.53125 339.339844 194.878906 339.410156 189.808594 335.996094 C 189.621094 335.863281 189.363281 335.894531 189.203125 336.050781 L 187.207031 338.054688 C 187.023438 338.242188 187.023438 338.546875 187.210938 338.730469 C 187.394531 338.914062 187.699219 338.914062 187.886719 338.730469 L 189.605469 337 C 193.402344 339.425781 197.945312 340.0625 202.160156 340.0625 C 203.792969 340.0625 205.375 339.96875 206.84375 339.84375 C 216.394531 339.03125 225.757812 336.839844 234.671875 333.328125 C 238.109375 331.972656 240.632812 330.742188 242.855469 329.328125 C 247.996094 326.058594 252.023438 321.4375 255.917969 316.964844 C 258.566406 313.925781 261.277344 310.8125 263.703125 307.484375 C 267.058594 308.132812 268.824219 311.730469 269.007812 314.15625 C 269.144531 315.988281 268.867188 317.867188 268.597656 319.6875 C 268.480469 320.480469 268.359375 321.273438 268.273438 322.066406 C 268.210938 322.632812 268.160156 323.214844 268.109375 323.800781 C 267.804688 327.230469 267.492188 330.777344 264.992188 332.769531 C 263.695312 333.804688 260.246094 334.78125 257.691406 333.273438 C 260.660156 328.871094 262.886719 323.054688 263.761719 317.140625 C 263.800781 316.878906 263.621094 316.636719 263.359375 316.597656 C 263.101562 316.554688 262.855469 316.738281 262.820312 317 C 261.703125 324.539062 258.355469 331.902344 254.085938 336.21875 C 247.972656 342.402344 239.03125 344.871094 231.085938 346.472656 C 214.851562 349.746094 198.027344 350.71875 181.753906 351.65625 C 174.554688 352.074219 167.121094 352.085938 162.34375 347.414062 C 156.832031 342.03125 157.714844 332.589844 161.035156 325.625 C 165.828125 315.5625 175.042969 307.5625 185.683594 304.230469 C 185.9375 304.148438 186.074219 303.882812 185.996094 303.628906 C 185.917969 303.378906 185.652344 303.238281 185.398438 303.320312 C 174.507812 306.730469 165.078125 314.914062 160.171875 325.214844 C 157.167969 331.523438 156.105469 339.804688 159.691406 345.617188 C 150.675781 342.839844 139.863281 330.753906 140.78125 321.34375 C 141.597656 312.980469 146.171875 304.675781 154.769531 295.945312 C 160.964844 289.652344 170.992188 280.902344 178.472656 276.445312 C 180.613281 277.078125 182.773438 277.636719 184.941406 278.058594 C 187.597656 278.566406 190.097656 278.824219 192.386719 278.824219 C 194.730469 278.824219 196.851562 278.554688 198.679688 278.019531 C 200.15625 277.585938 208.816406 274.492188 211.578125 271.242188 C 211.855469 270.914062 211.804688 270.601562 211.75 270.445312 C 211.4375 269.578125 209.632812 269.171875 204.941406 268.316406 C 202.796875 267.925781 200.578125 267.519531 198.925781 267.035156 C 196.242188 266.246094 193.910156 264.273438 191.660156 262.363281 C 189.042969 260.144531 186.570312 258.046875 183.59375 257.691406 C 182.707031 257.582031 178.523438 257.34375 176.453125 257.296875 C 176.425781 257.160156 176.347656 257.042969 176.230469 256.96875 C 169.128906 252.808594 161.847656 246.128906 155.949219 238.753906 C 159.382812 238.160156 161.789062 236.730469 162.863281 236.089844 C 169.382812 232.210938 173.609375 228.074219 175.472656 223.75 C 175.707031 231.097656 177.074219 235.777344 178.878906 241.128906 C 182.28125 251.214844 189.421875 254.996094 196.980469 259 L 197.339844 259.191406 C 199.085938 261.09375 201.101562 262.960938 203.410156 264.8125 C 207.25 267.886719 211.859375 270.207031 217.105469 271.71875 C 219.390625 272.375 221.632812 272.65625 223.796875 272.65625 C 231.148438 272.65625 237.617188 269.402344 241.96875 266.457031 C 241.628906 267.53125 241.320312 268.921875 241.355469 269.800781 C 241.40625 270.996094 242.183594 272.398438 243.527344 272.640625 C 243.671875 272.667969 243.8125 272.675781 243.953125 272.675781 C 244.824219 272.675781 245.625 272.207031 246.375 271.714844 L 256.929688 264.792969 C 258.542969 263.734375 260.214844 262.640625 261.683594 261.304688 C 265.015625 258.277344 267.472656 253.816406 268.792969 248.402344 C 269.460938 245.667969 269.8125 242.871094 270.03125 240.078125 C 270.082031 240.410156 270.140625 240.742188 270.191406 241.078125 C 271.761719 250.78125 273.714844 262.851562 273.570312 271.824219 C 273.386719 283.628906 270.894531 293.777344 266.164062 301.984375 C 263.144531 307.222656 259.105469 311.855469 255.199219 316.339844 Z M 121.273438 317.199219 C 116.253906 314.304688 111.058594 311.3125 106.683594 307.367188 C 106.304688 307.023438 105.828125 306.632812 105.285156 306.191406 C 99.859375 301.769531 87.21875 291.472656 104.242188 267.195312 C 108.257812 275.292969 113.503906 282.746094 118.605469 289.996094 C 120.757812 293.058594 122.984375 296.222656 125.890625 298.757812 C 128.359375 300.910156 131.230469 302.53125 134.003906 304.097656 C 134.078125 304.136719 134.160156 304.15625 134.238281 304.15625 C 134.40625 304.15625 134.566406 304.070312 134.65625 303.914062 C 134.785156 303.683594 134.703125 303.394531 134.472656 303.265625 C 131.738281 301.722656 128.914062 300.128906 126.515625 298.039062 C 123.699219 295.578125 121.507812 292.460938 119.386719 289.449219 C 113.21875 280.683594 106.835938 271.621094 102.71875 261.523438 C 98.457031 251.074219 97.320312 237.394531 99.855469 227.828125 C 100.835938 229.15625 101.851562 230.449219 102.851562 231.722656 C 108.601562 239.03125 160.316406 271.425781 169.519531 273.484375 C 169.554688 273.492188 169.589844 273.496094 169.621094 273.496094 C 169.644531 273.496094 169.667969 273.492188 169.691406 273.488281 C 170.046875 273.695312 170.464844 273.851562 170.859375 273.984375 C 172.957031 274.695312 175.089844 275.414062 177.246094 276.078125 C 169.78125 280.695312 160.125 289.144531 154.089844 295.273438 C 145.335938 304.164062 140.671875 312.664062 139.832031 321.25 C 139.703125 322.558594 139.78125 323.910156 140.035156 325.273438 C 134.324219 324.4375 126.609375 320.277344 121.273438 317.199219 Z M 96.796875 304.109375 C 96.238281 304.476562 95.707031 304.816406 95.398438 304.976562 C 93.234375 306.105469 90.441406 304.21875 89.09375 301.839844 C 87.015625 298.164062 86.820312 293.773438 86.796875 289.585938 C 86.777344 286.472656 86.832031 283.171875 87.71875 280.042969 C 89.691406 273.070312 97.347656 266.179688 102.078125 262.464844 C 102.609375 263.734375 103.171875 264.984375 103.765625 266.21875 C 90.132812 285.394531 94.433594 296.234375 99.78125 302.371094 C 98.996094 302.703125 97.980469 303.34375 96.796875 304.109375 Z M 174.121094 274.074219 C 173.128906 273.742188 172.144531 273.410156 171.164062 273.078125 C 170.890625 272.988281 170.339844 272.800781 170 272.550781 C 168.421875 266.078125 170.402344 262.882812 175.722656 258.242188 C 176.46875 258.234375 178.117188 258.300781 179.71875 258.386719 C 176.199219 262.78125 174.175781 268.441406 174.121094 274.074219 Z M 175.074219 274.386719 C 175.054688 268.667969 177.15625 262.886719 180.84375 258.519531 C 180.863281 258.5 180.878906 258.476562 180.890625 258.453125 C 182.085938 258.523438 183.105469 258.59375 183.476562 258.636719 C 186.171875 258.960938 188.535156 260.964844 191.039062 263.089844 C 193.371094 265.066406 195.777344 267.105469 198.65625 267.949219 C 200.359375 268.449219 202.601562 268.859375 204.773438 269.253906 C 207.058594 269.671875 210.148438 270.234375 210.777344 270.710938 C 208.257812 273.550781 200.429688 276.511719 198.410156 277.101562 C 194.941406 278.121094 190.347656 278.125 185.125 277.117188 C 181.753906 276.46875 178.386719 275.46875 175.074219 274.386719 Z M 92.460938 206.75 C 89.546875 187.191406 94.066406 165.644531 105.1875 146.074219 C 107.710938 141.632812 109.914062 138.472656 112.328125 135.839844 C 112.5625 135.582031 112.839844 135.257812 113.167969 134.878906 C 116.882812 130.5625 128.066406 117.5625 157.160156 112.179688 L 155.785156 113.8125 C 155.503906 114.144531 155.15625 114.558594 155.015625 115.089844 C 154.851562 115.714844 155.019531 116.328125 155.152344 116.824219 C 155.910156 119.609375 157.996094 126.414062 161.035156 129.597656 C 161.742188 135.90625 165.773438 139.820312 169.980469 143.902344 C 170.425781 144.332031 170.871094 144.765625 171.316406 145.203125 C 172.050781 145.929688 172.945312 146.746094 173.972656 147.472656 C 169.109375 156.0625 168.117188 165.5625 171.109375 174.96875 C 171.113281 174.976562 171.117188 174.984375 171.121094 174.996094 C 166.441406 179.484375 163.558594 185.796875 163.558594 192.707031 C 163.558594 199.726562 165.820312 205.535156 170.144531 209.765625 C 164.902344 216.28125 152.441406 220.652344 145.378906 221.042969 C 145.363281 221.003906 145.347656 220.964844 145.332031 220.925781 C 140.234375 207.339844 139.957031 192.28125 144.550781 178.519531 C 145.101562 176.875 145.730469 175.214844 146.339844 173.605469 C 147.984375 169.261719 149.6875 164.769531 150.023438 160.050781 C 150.65625 151.179688 145.976562 142.109375 138.382812 137.480469 C 138.15625 137.34375 137.863281 137.414062 137.726562 137.636719 C 137.589844 137.863281 137.660156 138.15625 137.886719 138.296875 C 145.183594 142.742188 149.679688 151.460938 149.070312 159.984375 C 148.746094 164.5625 147.070312 168.988281 145.449219 173.269531 C 144.835938 174.882812 144.203125 176.554688 143.648438 178.214844 C 138.984375 192.1875 139.265625 207.472656 144.441406 221.261719 C 144.5 221.414062 144.558594 221.566406 144.617188 221.722656 C 144.621094 221.726562 144.621094 221.734375 144.625 221.738281 C 146.75 227.207031 150.28125 233.058594 154.59375 238.570312 C 154.628906 238.667969 154.695312 238.75 154.777344 238.808594 C 160.671875 246.289062 167.996094 253.113281 175.175781 257.453125 C 169.730469 262.191406 167.492188 265.65625 168.953125 272.261719 C 168.9375 272.28125 168.921875 272.304688 168.910156 272.324219 C 157.910156 268.824219 109.15625 238.1875 103.601562 231.128906 C 102.414062 229.621094 101.203125 228.082031 100.0625 226.492188 C 100.050781 226.472656 100.039062 226.453125 100.023438 226.4375 C 98.867188 224.820312 97.78125 223.148438 96.859375 221.394531 C 94.773438 217.421875 93.335938 212.632812 92.460938 206.75 Z M 154.695312 97.445312 C 154.695312 73.09375 174.507812 53.285156 198.855469 53.285156 C 223.203125 53.285156 243.015625 73.09375 243.015625 97.445312 C 243.015625 109.394531 238.316406 120.585938 229.789062 128.957031 C 229.726562 129.015625 229.6875 129.089844 229.667969 129.167969 C 224.148438 126.265625 217.816406 124.566406 211.328125 124.382812 C 211.585938 124.132812 211.839844 123.875 212.09375 123.617188 C 214.558594 124.375 219.476562 121.265625 220.476562 120.605469 C 221.75 119.765625 224.703125 117.675781 224.601562 116.421875 C 224.542969 115.679688 224.476562 114.835938 224.816406 114.210938 C 225.167969 113.558594 225.898438 113.195312 226.667969 112.8125 C 227.042969 112.628906 227.414062 112.441406 227.757812 112.222656 C 229.285156 111.242188 230.339844 109.464844 230.648438 107.34375 C 230.734375 106.738281 230.957031 106.027344 231.191406 105.273438 C 231.644531 103.8125 232.113281 102.300781 231.820312 101.039062 C 230.832031 96.800781 229.359375 94.222656 227.316406 93.167969 C 226.835938 92.917969 226.257812 92.695312 225.648438 92.464844 C 224.507812 92.027344 223.230469 91.539062 222.582031 90.835938 C 223.601562 88.636719 223.925781 87.554688 222.726562 85.078125 C 222.542969 84.699219 222.433594 84.015625 222.328125 83.355469 C 222.136719 82.132812 221.9375 80.875 221.1875 80.289062 C 217.535156 77.441406 211.960938 74.457031 207.367188 74.699219 C 206.179688 74.757812 205.105469 75.523438 204.070312 76.261719 C 202.988281 77.039062 201.964844 77.765625 200.980469 77.597656 C 199.824219 77.402344 198.652344 76.214844 197.519531 75.0625 C 196.445312 73.972656 195.335938 72.847656 194.128906 72.441406 C 190.804688 71.316406 185.839844 71.792969 182.320312 73.578125 C 180.230469 74.632812 178.847656 76.058594 178.328125 77.699219 C 177.625 79.902344 175.835938 81.242188 173.941406 82.664062 C 172.855469 83.476562 171.734375 84.316406 170.753906 85.359375 C 169.007812 87.21875 168.296875 89.613281 167.605469 91.929688 C 167.191406 93.332031 166.757812 94.777344 166.105469 96.109375 C 165.132812 98.078125 165.058594 99.597656 165.878906 100.636719 C 166.039062 100.835938 166.226562 101.007812 166.4375 101.160156 L 158.121094 111.035156 C 157.710938 111.109375 157.304688 111.179688 156.902344 111.253906 C 155.4375 106.8125 154.695312 102.167969 154.695312 97.445312 Z M 240.988281 139.796875 C 246.792969 147.433594 248.566406 157.003906 246.019531 166.808594 C 242.675781 160.4375 239.074219 155.132812 235.574219 152.027344 C 228.859375 146.066406 219.664062 137.90625 209.554688 136.523438 C 204.761719 135.867188 199.367188 137.890625 194.691406 140.757812 C 197.65625 138.082031 200.511719 135.03125 202.984375 131.84375 C 203.042969 131.769531 203.074219 131.679688 203.082031 131.59375 C 204.328125 130.683594 205.511719 129.679688 206.632812 128.6875 C 207.84375 127.617188 209.105469 126.5 210.351562 125.320312 C 222.515625 125.382812 234.242188 130.917969 240.988281 139.796875 Z M 263.167969 196.039062 C 265.667969 201.984375 268.253906 208.128906 269.746094 214.507812 C 271.484375 221.929688 271.304688 227.390625 269.1875 231.175781 C 268.839844 231.042969 268.457031 231.015625 268.085938 231.011719 L 267.5 231.003906 C 265.9375 230.976562 264.183594 230.949219 262.671875 231.480469 C 262.757812 227.382812 262.105469 223.203125 260.746094 219.148438 C 262.058594 208.707031 255.265625 184.90625 246.605469 167.941406 C 246.683594 167.882812 246.742188 167.796875 246.769531 167.691406 C 247.027344 166.773438 247.246094 165.851562 247.425781 164.9375 C 252.945312 173.863281 258.234375 184.316406 263.167969 196.039062 Z M 243.195312 265.871094 C 243.238281 265.773438 243.242188 265.671875 243.222656 265.578125 C 245.996094 263.558594 247.632812 261.882812 247.6875 261.824219 C 252.800781 255.699219 258.570312 248.785156 261.175781 240.589844 C 262.589844 240.238281 264.089844 239.96875 265.542969 240.234375 C 267.101562 240.519531 268.386719 241.492188 268.816406 242.710938 C 268.601562 244.554688 268.304688 246.382812 267.867188 248.175781 C 266.589844 253.402344 264.234375 257.699219 261.042969 260.597656 C 259.628906 261.886719 257.988281 262.957031 256.40625 263.996094 L 245.851562 270.917969 C 245.113281 271.402344 244.390625 271.816406 243.695312 271.699219 C 242.875 271.550781 242.34375 270.597656 242.3125 269.761719 C 242.273438 268.824219 242.765625 266.867188 243.195312 265.871094 Z M 262.632812 232.511719 C 262.648438 232.507812 262.664062 232.503906 262.675781 232.496094 C 264.085938 231.898438 265.816406 231.929688 267.480469 231.957031 L 268.074219 231.964844 C 268.453125 231.96875 268.835938 232 269.066406 232.1875 C 269.417969 232.46875 269.441406 233.085938 269.417969 233.710938 C 269.316406 236.15625 269.210938 238.644531 268.984375 241.117188 C 268.222656 240.207031 267.066406 239.542969 265.710938 239.292969 C 264.277344 239.03125 262.851562 239.226562 261.492188 239.535156 C 262.132812 237.253906 262.507812 234.898438 262.632812 232.511719 Z M 198.035156 258.535156 C 198.011719 258.503906 197.984375 258.472656 197.953125 258.445312 C 195.941406 256.234375 194.304688 253.972656 193.019531 251.621094 C 190.851562 247.671875 190.386719 242.972656 191.53125 236.453125 C 191.761719 236.796875 192.074219 237.199219 192.570312 237.359375 C 192.742188 237.414062 192.917969 237.433594 193.078125 237.433594 C 193.257812 237.433594 193.421875 237.410156 193.550781 237.390625 C 197.59375 236.847656 202.5 234.710938 204.148438 230.347656 C 204.289062 229.972656 204.425781 229.53125 204.402344 229.046875 C 204.398438 228.972656 204.386719 228.898438 204.375 228.824219 C 210.289062 229.746094 215.339844 233.585938 219.808594 236.988281 C 224.632812 240.65625 229.617188 244.445312 233.675781 249.0625 C 233.773438 249.167969 233.902344 249.222656 234.035156 249.222656 C 234.144531 249.222656 234.257812 249.183594 234.351562 249.105469 C 234.546875 248.929688 234.566406 248.628906 234.394531 248.429688 C 233.308594 247.195312 232.15625 246.023438 230.964844 244.894531 C 233.839844 236.566406 235.28125 228.4375 235.367188 220.054688 C 235.371094 219.375 235.371094 218.695312 235.367188 218.015625 C 235.363281 215.15625 235.351562 212.199219 236.011719 209.410156 C 236.910156 205.589844 239.121094 202.589844 241.925781 201.382812 C 242.164062 201.277344 242.277344 200.996094 242.171875 200.753906 C 242.066406 200.511719 241.785156 200.398438 241.546875 200.503906 C 238.464844 201.832031 236.050781 205.078125 235.082031 209.191406 C 234.730469 210.691406 234.5625 212.21875 234.480469 213.75 C 232.664062 210.472656 229.746094 208.78125 226.4375 206.855469 C 225.761719 206.464844 225.074219 206.0625 224.375 205.640625 L 217.84375 201.660156 C 216.089844 200.585938 214.382812 199.539062 212.628906 198.695312 C 215.042969 196.65625 218.648438 194.875 221.734375 194.199219 C 221.792969 194.722656 221.835938 195.195312 221.851562 195.589844 C 221.859375 195.757812 221.953125 195.910156 222.097656 195.988281 C 223.183594 196.585938 224.417969 196.882812 225.792969 196.882812 C 227.757812 196.882812 230.011719 196.277344 232.535156 195.0625 C 233.421875 194.640625 234.339844 194.15625 234.960938 193.316406 C 234.992188 193.277344 235.019531 193.234375 235.046875 193.195312 C 238.417969 194.820312 241.53125 196.703125 244.359375 198.816406 C 244.394531 198.851562 244.433594 198.882812 244.476562 198.90625 C 249.351562 202.574219 253.355469 206.921875 256.285156 211.777344 C 257.734375 214.183594 258.902344 216.699219 259.777344 219.265625 C 259.78125 219.355469 259.8125 219.441406 259.859375 219.511719 C 262.054688 226.085938 262.339844 232.988281 260.566406 239.292969 C 258.191406 247.75 252.222656 254.902344 246.980469 261.1875 C 246.839844 261.328125 233.144531 275.335938 217.367188 270.800781 C 212.242188 269.324219 207.746094 267.0625 204.007812 264.066406 C 201.730469 262.246094 199.75 260.40625 198.035156 258.535156 Z M 176.425781 218.980469 C 178.8125 223.839844 182.480469 227.816406 186.84375 230.109375 C 187.160156 230.277344 187.472656 230.425781 187.773438 230.5625 C 188.761719 231.832031 189.59375 233.238281 190.328125 234.484375 C 190.507812 234.785156 190.679688 235.078125 190.847656 235.363281 C 190.78125 235.429688 190.734375 235.511719 190.714844 235.613281 C 189.8125 240.390625 189.164062 246.578125 192.179688 252.082031 C 193.140625 253.832031 194.285156 255.53125 195.628906 257.199219 C 188.925781 253.597656 182.796875 249.753906 179.785156 240.820312 C 177.644531 234.488281 176.132812 229.109375 176.425781 218.980469 Z M 185.191406 169.316406 C 185.222656 169.3125 185.253906 169.304688 185.285156 169.292969 C 185.363281 169.421875 185.441406 169.546875 185.527344 169.671875 C 185.527344 169.671875 185.527344 169.675781 185.527344 169.675781 C 185.554688 169.714844 186.75 171.402344 188.617188 173.578125 C 188.640625 173.609375 188.664062 173.636719 188.695312 173.664062 C 190.40625 175.648438 192.667969 178.023438 195.105469 179.921875 C 194.746094 179.824219 194.386719 179.742188 194.027344 179.683594 C 190.570312 179.125 185.3125 179.9375 181.347656 183.019531 C 178.496094 185.238281 176.773438 188.304688 176.351562 191.910156 C 174.6875 192.207031 174.375 194.488281 174.148438 196.042969 C 174.113281 196.296875 174.078125 196.535156 174.042969 196.738281 C 173.085938 202.03125 173.0625 207.03125 173.96875 211.628906 C 167.777344 207.527344 164.511719 201 164.511719 192.707031 C 164.511719 180.808594 173.402344 170.753906 185.191406 169.316406 Z M 179.570312 149.488281 C 179.574219 149.488281 179.578125 149.488281 179.582031 149.488281 C 181.835938 149.484375 183.910156 148.460938 185.820312 147.355469 C 186.320312 147.066406 186.828125 146.757812 187.335938 146.433594 C 181.007812 152.792969 180.144531 165.367188 180.035156 169.125 C 180.03125 169.265625 180.089844 169.394531 180.183594 169.484375 C 177.089844 170.53125 174.285156 172.179688 171.898438 174.28125 C 169.101562 165.164062 170.070312 156.328125 174.773438 148 C 176.179688 148.859375 177.796875 149.488281 179.570312 149.488281 Z M 234.925781 187.082031 L 231.441406 177.304688 C 231.539062 176.878906 231.621094 176.441406 231.679688 175.996094 C 232.214844 172.035156 231.246094 168.085938 230.210938 164.378906 C 229.539062 161.984375 228.785156 159.503906 227.628906 157.21875 C 230.257812 159.894531 232.644531 162.878906 234.722656 166.125 C 241.332031 176.445312 243.515625 188.6875 244.152344 197.480469 C 241.492188 195.566406 238.59375 193.84375 235.480469 192.34375 C 236.050781 190.742188 235.542969 188.816406 234.925781 187.082031 Z M 222.3125 191.292969 C 222.066406 189.539062 221.789062 187.574219 221.695312 185.941406 C 222.789062 185.886719 223.890625 185.726562 224.945312 185.351562 C 227.652344 184.378906 229.851562 181.957031 230.980469 178.855469 L 234.027344 187.402344 C 234.722656 189.359375 235.226562 191.363281 234.195312 192.746094 C 233.703125 193.410156 232.902344 193.832031 232.125 194.203125 C 228.253906 196.058594 225.117188 196.417969 222.792969 195.273438 C 222.722656 194.21875 222.523438 192.792969 222.3125 191.292969 Z M 220.59375 193.5 C 220.160156 191.683594 219.511719 190.46875 218.691406 188.929688 L 218.464844 188.507812 C 218.113281 187.847656 217.675781 187.089844 217.054688 186.445312 L 216.835938 186.210938 C 216.691406 186.054688 216.546875 185.902344 216.40625 185.757812 C 217.0625 185.796875 217.710938 185.835938 218.351562 185.871094 C 219.121094 185.914062 219.925781 185.960938 220.742188 185.960938 C 220.835938 187.640625 221.117188 189.640625 221.367188 191.425781 C 221.457031 192.054688 221.542969 192.667969 221.617188 193.25 C 221.28125 193.320312 220.9375 193.40625 220.59375 193.5 Z M 217.128906 194.789062 C 216.210938 191.601562 214.894531 188.441406 211.855469 186.519531 C 211.820312 186.496094 211.78125 186.480469 211.742188 186.46875 C 211.648438 186.050781 211.554688 185.683594 211.46875 185.375 C 212.621094 185.492188 213.765625 185.585938 214.894531 185.664062 C 215.230469 185.890625 215.8125 186.515625 216.136719 186.863281 L 216.367188 187.109375 C 216.90625 187.664062 217.304688 188.355469 217.621094 188.957031 L 217.847656 189.382812 C 218.671875 190.917969 219.265625 192.03125 219.667969 193.738281 C 219.671875 193.753906 219.675781 193.765625 219.679688 193.777344 C 218.832031 194.054688 217.972656 194.398438 217.128906 194.789062 Z M 212.023438 187.800781 C 214.367188 189.625 215.460938 192.40625 216.257812 195.210938 C 214.976562 195.859375 213.753906 196.613281 212.695312 197.421875 C 213.070312 194.734375 212.578125 190.6875 212.023438 187.800781 Z M 223.164062 206.253906 C 221.410156 211.910156 217.179688 216.824219 211.84375 219.402344 C 207.710938 221.398438 203.039062 222.042969 198.566406 222.492188 L 198.472656 222.402344 C 198.46875 222.398438 198.460938 222.394531 198.457031 222.390625 C 198.144531 219.855469 196.882812 217.253906 194.699219 214.640625 C 200.699219 211.394531 207.433594 205.539062 209.136719 198.390625 C 211.976562 199.199219 214.613281 200.800781 217.34375 202.472656 L 223.261719 206.078125 C 223.21875 206.125 223.183594 206.1875 223.164062 206.253906 Z M 234.414062 218.015625 C 234.414062 218.691406 234.417969 219.371094 234.410156 220.042969 C 234.402344 220.835938 234.382812 221.628906 234.351562 222.414062 C 229.644531 224.820312 223.390625 226.257812 217.574219 226.269531 C 211.582031 226.246094 206.246094 226.179688 201.054688 224.851562 L 199.480469 223.359375 C 203.785156 222.902344 208.242188 222.203125 212.257812 220.261719 C 217.816406 217.578125 222.226562 212.457031 224.066406 206.566406 C 224.703125 206.953125 225.339844 207.320312 225.960938 207.683594 C 229.585938 209.789062 232.714844 211.605469 234.300781 215.597656 C 234.328125 215.664062 234.367188 215.722656 234.421875 215.769531 C 234.410156 216.523438 234.410156 217.273438 234.414062 218.015625 Z M 179.039062 186.9375 C 180.023438 188.027344 181.28125 188.84375 182.652344 189.335938 C 183.128906 190.242188 183.203125 191.929688 182.933594 192.828125 C 182.832031 193.171875 182.667969 193.523438 182.425781 193.9375 C 181.9375 194.761719 181.328125 195.5 180.609375 196.125 C 179.871094 194.679688 178.550781 192.523438 177.300781 191.996094 C 177.523438 190.117188 178.105469 188.425781 179.039062 186.9375 Z M 192.566406 180.488281 C 192.582031 180.5 192.589844 180.511719 192.605469 180.519531 C 193.203125 180.941406 193.550781 181.699219 193.855469 182.371094 C 194.582031 183.960938 195.203125 185.511719 194.808594 186.949219 C 194.707031 187.328125 194.445312 187.867188 194.164062 188.375 C 193.96875 187.875 193.652344 187.445312 193.230469 187.117188 C 192.53125 186.558594 191.628906 186.34375 190.8125 186.535156 C 190.242188 186.667969 189.945312 187.085938 189.703125 187.421875 C 189.609375 187.554688 189.515625 187.6875 189.402344 187.800781 C 188.984375 188.203125 188.386719 188.496094 187.570312 188.699219 C 184.734375 189.40625 181.492188 188.347656 179.59375 186.128906 C 180.246094 185.265625 181.023438 184.480469 181.933594 183.773438 C 185.203125 181.234375 189.394531 180.324219 192.566406 180.488281 Z M 200.089844 183.71875 C 199.980469 184.144531 199.6875 184.574219 199.210938 184.992188 C 198.960938 185.210938 198.691406 185.40625 198.421875 185.605469 C 198.339844 185.667969 198.253906 185.730469 198.167969 185.792969 C 198.0625 185.625 197.941406 185.46875 197.8125 185.316406 C 197.542969 185.011719 197.214844 184.726562 196.769531 184.414062 C 196.347656 184.117188 195.898438 183.847656 195.441406 183.617188 C 195.429688 183.613281 195.417969 183.609375 195.40625 183.605469 C 195.210938 183.0625 194.972656 182.519531 194.722656 181.972656 C 194.535156 181.558594 194.320312 181.089844 194.023438 180.652344 C 196.117188 181.03125 198.300781 182.179688 200.089844 183.71875 Z M 183.792969 189.667969 C 185.105469 189.953125 186.480469 189.953125 187.800781 189.625 C 188.785156 189.382812 189.527344 189.007812 190.066406 188.484375 C 190.222656 188.332031 190.355469 188.152344 190.480469 187.976562 C 190.691406 187.683594 190.820312 187.511719 191.03125 187.464844 C 191.554688 187.34375 192.171875 187.496094 192.636719 187.863281 C 193.160156 188.277344 193.449219 188.917969 193.449219 189.671875 C 193.449219 189.878906 193.585938 190.0625 193.785156 190.125 C 193.832031 190.140625 193.878906 190.148438 193.925781 190.148438 C 194.078125 190.148438 194.226562 190.074219 194.316406 189.941406 C 194.742188 189.324219 195.503906 188.039062 195.730469 187.199219 C 195.941406 186.429688 195.925781 185.667969 195.773438 184.902344 C 195.925781 184.996094 196.074219 185.09375 196.222656 185.195312 C 196.601562 185.460938 196.878906 185.699219 197.09375 185.945312 C 197.292969 186.175781 197.457031 186.429688 197.582031 186.710938 C 197.644531 186.847656 197.765625 186.945312 197.910156 186.980469 C 197.945312 186.988281 197.984375 186.992188 198.019531 186.992188 C 198.128906 186.992188 198.238281 186.953125 198.324219 186.882812 C 198.539062 186.703125 198.761719 186.539062 198.988281 186.371094 C 199.277344 186.160156 199.570312 185.945312 199.839844 185.707031 C 200.304688 185.300781 200.640625 184.867188 200.847656 184.421875 C 201.960938 185.519531 202.863281 186.769531 203.414062 188.058594 C 204.332031 190.203125 204.460938 192.617188 204.472656 194.480469 C 204.484375 196.644531 204.324219 199.414062 202.976562 201.601562 C 201.203125 204.488281 198.082031 206.585938 193.949219 207.675781 C 192.65625 208.019531 190.078125 208.058594 188.722656 207.859375 C 188.628906 207.84375 188.539062 207.859375 188.457031 207.898438 C 188.054688 207.539062 187.640625 207.199219 187.210938 206.871094 C 183.1875 203.800781 182.695312 202.222656 181.71875 199.082031 C 181.554688 198.554688 181.378906 197.988281 181.171875 197.363281 C 181.144531 197.285156 181.097656 197.164062 181.035156 197.019531 C 181.917969 196.285156 182.664062 195.410156 183.246094 194.421875 C 183.53125 193.941406 183.722656 193.519531 183.847656 193.105469 C 184.117188 192.214844 184.109375 190.789062 183.792969 189.667969 Z M 194.0625 213.898438 L 193.257812 212.96875 C 192.070312 211.59375 190.855469 210.1875 189.53125 208.894531 C 189.914062 208.917969 190.328125 208.929688 190.75 208.929688 C 191.996094 208.929688 193.332031 208.828125 194.191406 208.597656 C 198.566406 207.445312 201.886719 205.199219 203.789062 202.105469 C 204.601562 200.78125 205.019531 199.296875 205.230469 197.84375 C 206.257812 197.832031 207.246094 197.945312 208.210938 198.15625 C 206.570312 205.078125 199.925781 210.773438 194.0625 213.898438 Z M 210.441406 185.261719 C 211.265625 187.820312 212.414062 195.203125 211.5625 198.214844 C 209.609375 197.390625 207.578125 196.867188 205.339844 196.886719 C 205.414062 196.042969 205.429688 195.222656 205.425781 194.476562 C 205.414062 192.523438 205.277344 189.984375 204.292969 187.683594 C 203.585938 186.027344 202.375 184.453125 200.890625 183.136719 C 203.964844 184.265625 207.21875 184.882812 210.441406 185.261719 Z M 189.460938 173.101562 C 188.710938 169.023438 190.550781 163.195312 192.6875 159.738281 C 194.59375 156.652344 196.566406 153.464844 199.082031 150.777344 C 201.597656 148.089844 206.078125 146.105469 209.457031 145.308594 C 214.96875 147.339844 220.148438 150.472656 224.726562 154.480469 C 224.9375 154.738281 225.144531 154.996094 225.339844 155.265625 C 227.339844 158.035156 228.386719 161.414062 229.289062 164.636719 C 230.300781 168.246094 231.246094 172.085938 230.734375 175.871094 C 230.1875 179.949219 227.785156 183.316406 224.621094 184.453125 C 223.535156 184.839844 222.359375 184.976562 221.1875 185 C 221.183594 185 221.183594 185 221.179688 185 C 221.175781 185 221.171875 185.003906 221.167969 185.003906 C 220.226562 185.019531 219.292969 184.96875 218.40625 184.917969 C 217.3125 184.855469 216.210938 184.792969 215.109375 184.71875 C 215.09375 184.71875 215.078125 184.71875 215.0625 184.71875 C 209.785156 184.363281 204.464844 183.738281 199.589844 181.585938 C 195.996094 180 192.140625 176.175781 189.460938 173.101562 Z M 185.90625 156.480469 C 188.394531 149.601562 192.96875 145.273438 198.78125 144.300781 C 201.609375 143.832031 204.625 143.988281 207.8125 144.765625 C 204.53125 145.765625 200.691406 147.660156 198.386719 150.121094 C 195.808594 152.878906 193.808594 156.113281 191.875 159.238281 C 189.835938 162.527344 188.132812 167.632812 188.351562 171.789062 C 187.398438 170.625 186.683594 169.671875 186.316406 169.136719 C 182.839844 163.960938 185.863281 156.578125 185.90625 156.480469 Z M 175.253906 213.015625 C 174.027344 208.109375 173.933594 202.691406 174.980469 196.910156 C 175.019531 196.695312 175.054688 196.449219 175.09375 196.179688 C 175.351562 194.414062 175.667969 192.832031 176.730469 192.832031 C 176.742188 192.832031 176.753906 192.832031 176.769531 192.832031 C 177.746094 192.863281 179.832031 196.367188 180.265625 197.667969 C 180.472656 198.28125 180.644531 198.84375 180.808594 199.367188 C 181.8125 202.597656 182.367188 204.375 186.632812 207.628906 C 188.84375 209.316406 190.71875 211.492188 192.535156 213.59375 L 193.589844 214.808594 C 196.191406 217.78125 197.535156 220.703125 197.578125 223.496094 C 197.625 226.445312 195.695312 229.953125 192.488281 230.472656 C 191.257812 230.671875 189.878906 230.4375 188.308594 229.753906 C 188.296875 229.746094 188.28125 229.746094 188.269531 229.738281 C 187.949219 229.597656 187.625 229.441406 187.289062 229.265625 C 181.546875 226.246094 177.046875 220.167969 175.253906 213.015625 Z M 191.148438 234 C 190.621094 233.101562 190.039062 232.121094 189.386719 231.160156 C 190.167969 231.382812 190.90625 231.496094 191.617188 231.496094 C 191.964844 231.496094 192.308594 231.46875 192.640625 231.414062 C 196.292969 230.824219 198.460938 227.125 198.53125 223.777344 L 202.292969 227.34375 C 202.882812 227.902344 203.414062 228.453125 203.449219 229.097656 C 203.464844 229.402344 203.359375 229.730469 203.253906 230.011719 C 201.753906 233.980469 197.191406 235.9375 193.421875 236.445312 C 193.203125 236.476562 193.007812 236.496094 192.863281 236.449219 C 192.632812 236.375 192.441406 236.101562 192.230469 235.78125 C 191.882812 235.242188 191.527344 234.636719 191.148438 234 Z M 220.386719 236.226562 C 215.945312 232.847656 210.417969 228.644531 204.066406 227.816406 C 204.035156 227.8125 204.007812 227.808594 203.976562 227.8125 C 203.703125 227.386719 203.328125 227.007812 202.949219 226.648438 L 202.421875 226.148438 C 207 227.105469 211.707031 227.226562 216.851562 227.226562 C 217.089844 227.226562 217.332031 227.222656 217.574219 227.222656 C 223.339844 227.214844 229.523438 225.832031 234.296875 223.507812 C 233.910156 230.441406 232.558594 237.246094 230.199219 244.183594 C 227.078125 241.316406 223.695312 238.742188 220.386719 236.226562 Z M 259.945312 216.980469 C 259.160156 215.035156 258.210938 213.128906 257.101562 211.285156 C 254.132812 206.359375 250.085938 201.949219 245.160156 198.226562 C 244.589844 189.269531 242.449219 176.421875 235.527344 165.609375 C 232.679688 161.164062 229.261719 157.195312 225.433594 153.828125 C 223.027344 150.925781 219.800781 148.945312 217.5 147.671875 C 210.621094 143.867188 204.273438 142.414062 198.625 143.359375 C 192.457031 144.390625 187.621094 148.9375 185.015625 156.136719 C 184.890625 156.433594 182.199219 162.984375 184.800781 168.40625 C 183.488281 168.582031 182.210938 168.859375 180.976562 169.230469 C 180.980469 169.207031 180.988281 169.179688 180.988281 169.152344 C 181.097656 165.417969 181.960938 152.761719 188.347656 146.78125 C 194.003906 141.484375 202.714844 136.554688 209.425781 137.46875 C 219.246094 138.8125 228.316406 146.859375 234.941406 152.738281 C 246.789062 163.25 260.308594 201.273438 259.945312 216.980469 Z M 209.875 124.460938 C 209.84375 124.484375 209.816406 124.507812 209.792969 124.535156 C 208.523438 125.742188 207.234375 126.882812 206 127.972656 C 202.519531 131.046875 198.441406 134.292969 193.921875 133.90625 C 193.191406 133.839844 192.675781 133.683594 192.300781 133.410156 C 191.511719 132.828125 191.308594 131.746094 191.089844 130.601562 C 191.046875 130.375 191 130.144531 190.953125 129.925781 C 190.363281 127.195312 188.699219 124.730469 186.386719 123.167969 C 185.695312 122.695312 184.945312 122.304688 184.222656 121.929688 C 183.125 121.355469 182.089844 120.816406 181.234375 120.023438 C 178.496094 117.480469 178.605469 113.109375 179.867188 110.128906 C 181.308594 106.722656 184.167969 103.984375 186.691406 101.570312 C 188.578125 99.765625 189.960938 98.097656 191.070312 96.757812 C 194.429688 92.699219 195.816406 91.019531 203.839844 93.703125 L 204.058594 93.777344 C 205.152344 94.140625 207.714844 94.996094 208.265625 95.871094 C 208.582031 96.378906 208.609375 96.949219 208.636719 97.609375 C 208.679688 98.519531 208.722656 99.554688 209.628906 100.507812 C 210.554688 101.488281 211.894531 102.136719 213.605469 102.4375 C 213.847656 102.480469 214.089844 102.515625 214.332031 102.550781 C 214.898438 102.632812 215.433594 102.707031 215.9375 102.875 C 217.472656 103.394531 218.503906 104.328125 219.003906 105.65625 C 220.117188 108.601562 218.5 113.125 216.777344 116.105469 C 215.375 118.535156 213.585938 120.699219 211.671875 122.679688 C 211.640625 122.703125 211.609375 122.734375 211.585938 122.769531 C 211.023438 123.347656 210.449219 123.910156 209.875 124.460938 Z M 162.75 121.558594 C 164.808594 113.820312 168.207031 104.804688 176.308594 103.765625 C 179.746094 103.324219 181.878906 99.660156 183.585938 96.710938 L 184 96.003906 C 184.820312 94.605469 184.878906 93.371094 184.160156 92.613281 C 183.753906 92.183594 183.195312 92.023438 182.703125 91.921875 C 181.425781 91.65625 180.25 91.675781 179.203125 91.984375 C 177.960938 92.347656 176.925781 93.136719 176.355469 94.148438 C 175.964844 94.839844 175.804688 95.601562 175.648438 96.335938 C 175.527344 96.90625 175.414062 97.445312 175.203125 97.941406 L 175.101562 98.179688 C 174.738281 99.042969 174.183594 100.347656 173.582031 100.660156 C 172.0625 101.011719 167.859375 101.589844 166.628906 100.042969 C 166.054688 99.320312 166.167969 98.140625 166.960938 96.53125 C 167.652344 95.128906 168.09375 93.640625 168.523438 92.203125 C 169.210938 89.890625 169.859375 87.707031 171.449219 86.011719 C 172.371094 85.03125 173.460938 84.21875 174.511719 83.429688 C 176.535156 81.914062 178.441406 80.484375 179.238281 77.988281 C 179.679688 76.597656 180.894531 75.367188 182.75 74.425781 C 186.011719 72.777344 190.773438 72.316406 193.820312 73.34375 C 194.816406 73.679688 195.84375 74.722656 196.839844 75.734375 C 198.078125 76.988281 199.359375 78.289062 200.816406 78.539062 C 202.195312 78.765625 203.429688 77.894531 204.625 77.039062 C 205.546875 76.378906 206.503906 75.699219 207.414062 75.652344 C 211.753906 75.453125 217.242188 78.429688 220.601562 81.042969 C 221.054688 81.398438 221.238281 82.566406 221.386719 83.503906 C 221.507812 84.265625 221.625 84.988281 221.867188 85.496094 C 222.921875 87.664062 222.660156 88.417969 221.589844 90.703125 C 221.519531 90.855469 221.535156 91.039062 221.632812 91.175781 C 222.371094 92.234375 223.929688 92.828125 225.304688 93.355469 C 225.890625 93.578125 226.445312 93.792969 226.875 94.015625 C 228.632812 94.921875 229.980469 97.359375 230.890625 101.257812 C 231.125 102.265625 230.695312 103.652344 230.28125 104.988281 C 230.035156 105.78125 229.800781 106.527344 229.703125 107.207031 C 229.433594 109.054688 228.539062 110.589844 227.242188 111.421875 C 226.929688 111.621094 226.585938 111.789062 226.246094 111.960938 C 225.375 112.390625 224.476562 112.839844 223.980469 113.753906 C 223.503906 114.632812 223.585938 115.664062 223.652344 116.488281 C 223.625 117.007812 221.515625 118.980469 218.386719 120.773438 C 216.066406 122.101562 214.070312 122.820312 212.890625 122.789062 C 214.648438 120.914062 216.285156 118.867188 217.601562 116.582031 C 218.265625 115.441406 221.484375 109.519531 219.898438 105.320312 C 219.292969 103.710938 218.0625 102.585938 216.242188 101.972656 C 215.65625 101.777344 215.050781 101.691406 214.46875 101.605469 C 214.234375 101.570312 214.003906 101.539062 213.773438 101.496094 C 212.265625 101.234375 211.105469 100.679688 210.320312 99.851562 C 209.660156 99.15625 209.628906 98.421875 209.589844 97.566406 C 209.558594 96.839844 209.523438 96.085938 209.074219 95.363281 C 208.398438 94.289062 206.285156 93.511719 204.359375 92.875 L 204.144531 92.800781 C 195.503906 89.90625 193.777344 91.992188 190.335938 96.148438 C 189.183594 97.539062 187.875 99.117188 186.03125 100.878906 C 183.441406 103.359375 180.503906 106.167969 178.984375 109.757812 C 177.601562 113.035156 177.507812 117.867188 180.585938 120.722656 C 181.535156 121.605469 182.675781 122.199219 183.78125 122.777344 C 184.480469 123.140625 185.203125 123.515625 185.851562 123.957031 C 187.960938 125.386719 189.480469 127.636719 190.023438 130.128906 C 190.066406 130.339844 190.109375 130.558594 190.152344 130.78125 C 190.382812 131.996094 190.644531 133.375 191.734375 134.175781 C 192.421875 134.683594 193.265625 134.808594 193.839844 134.855469 C 194.117188 134.882812 194.394531 134.890625 194.671875 134.890625 C 196.8125 134.890625 198.832031 134.183594 200.730469 133.117188 C 196.121094 138.625 190.492188 143.546875 185.339844 146.53125 C 183.546875 147.570312 181.609375 148.53125 179.582031 148.535156 C 179.578125 148.535156 179.574219 148.535156 179.570312 148.535156 C 177.175781 148.535156 174.765625 147.261719 171.984375 144.523438 C 171.539062 144.082031 171.089844 143.648438 170.644531 143.214844 C 164.820312 137.566406 159.789062 132.6875 162.75 121.558594 Z M 167.308594 101.605469 C 169.757812 102.511719 173.621094 101.628906 173.902344 101.554688 C 174.925781 101.046875 175.535156 99.601562 175.980469 98.550781 L 176.078125 98.316406 C 176.328125 97.734375 176.457031 97.125 176.582031 96.535156 C 176.730469 95.839844 176.871094 95.183594 177.1875 94.617188 C 177.636719 93.820312 178.46875 93.191406 179.472656 92.898438 C 180.367188 92.640625 181.386719 92.621094 182.511719 92.855469 C 182.859375 92.925781 183.242188 93.03125 183.46875 93.269531 C 184.058594 93.890625 183.394531 95.148438 183.179688 95.519531 L 182.761719 96.234375 C 181.15625 98.996094 179.160156 102.4375 176.191406 102.816406 C 167.523438 103.929688 163.960938 113.289062 161.824219 121.3125 C 161.164062 123.808594 160.890625 126.011719 160.929688 127.992188 C 158.464844 124.699219 156.742188 119.03125 156.074219 116.574219 C 155.964844 116.171875 155.839844 115.710938 155.9375 115.328125 C 156.023438 115.007812 156.285156 114.699219 156.515625 114.425781 Z M 175.441406 220.582031 C 174.539062 225.707031 170.144531 230.648438 162.375 235.273438 C 160.597656 236.328125 158.367188 237.457031 155.269531 237.894531 C 151.203125 232.683594 147.847656 227.167969 145.746094 221.976562 C 152.890625 221.480469 165.300781 217.257812 170.84375 210.421875 C 171.816406 211.289062 172.878906 212.085938 174.035156 212.808594 C 174.101562 212.847656 174.167969 212.867188 174.242188 212.875 C 174.269531 213 174.296875 213.121094 174.328125 213.246094 C 174.652344 214.539062 175.0625 215.792969 175.550781 217.007812 C 175.488281 218.265625 175.453125 219.453125 175.441406 220.582031 Z M 274.527344 271.839844 C 274.667969 262.785156 272.707031 250.664062 271.136719 240.925781 C 270.867188 239.265625 270.609375 237.667969 270.371094 236.160156 C 270.359375 236.078125 270.324219 236.003906 270.277344 235.941406 C 270.308594 235.207031 270.339844 234.476562 270.371094 233.75 C 270.390625 233.25 270.425781 232.382812 269.957031 231.75 C 272.253906 227.742188 272.488281 222.027344 270.679688 214.292969 C 269.164062 207.835938 266.5625 201.648438 264.046875 195.667969 C 258.929688 183.503906 253.421875 172.695312 247.675781 163.53125 C 249.078125 154.683594 247.035156 146.179688 241.75 139.222656 C 238.800781 135.339844 234.925781 132.078125 230.484375 129.609375 C 239.179688 121.0625 243.96875 109.636719 243.96875 97.445312 C 243.96875 72.566406 223.730469 52.332031 198.855469 52.332031 C 173.980469 52.332031 153.742188 72.566406 153.742188 97.445312 C 153.742188 102.226562 154.488281 106.933594 155.957031 111.4375 C 127.300781 116.996094 116.167969 129.929688 112.445312 134.253906 C 112.125 134.628906 111.851562 134.945312 111.621094 135.195312 C 109.160156 137.882812 106.917969 141.09375 104.359375 145.601562 C 93.132812 165.359375 88.570312 187.125 91.515625 206.890625 C 92.40625 212.878906 93.878906 217.769531 96.015625 221.835938 C 96.929688 223.585938 98 225.242188 99.140625 226.84375 C 96.324219 236.523438 97.371094 250.691406 101.703125 261.546875 C 96.902344 265.292969 88.875 272.445312 86.800781 279.78125 C 85.882812 283.03125 85.824219 286.410156 85.84375 289.59375 C 85.867188 293.714844 86.074219 298.433594 88.261719 302.308594 C 89.511719 304.515625 91.777344 306.269531 93.996094 306.269531 C 94.621094 306.269531 95.242188 306.132812 95.835938 305.824219 C 96.1875 305.644531 96.710938 305.304688 97.316406 304.914062 C 98.289062 304.28125 99.707031 303.359375 100.46875 303.128906 C 101.96875 304.71875 103.492188 305.964844 104.683594 306.933594 C 105.210938 307.363281 105.675781 307.742188 106.046875 308.074219 C 110.496094 312.089844 115.734375 315.109375 120.796875 318.027344 C 126.273438 321.183594 134.238281 325.472656 140.140625 326.253906 C 140.160156 326.257812 140.179688 326.257812 140.203125 326.257812 C 140.21875 326.257812 140.234375 326.257812 140.25 326.253906 C 142.5 335.429688 152.304688 344.953125 160.539062 346.828125 C 160.886719 347.269531 161.261719 347.695312 161.675781 348.097656 C 165.582031 351.917969 171.042969 352.78125 176.742188 352.78125 C 178.421875 352.78125 180.121094 352.707031 181.808594 352.609375 C 198.113281 351.667969 214.972656 350.691406 231.277344 347.410156 C 239.359375 345.777344 248.46875 343.253906 254.765625 336.890625 C 255.59375 336.050781 256.390625 335.101562 257.144531 334.058594 C 258.253906 334.730469 259.523438 335.003906 260.761719 335.003906 C 262.695312 335.003906 264.546875 334.34375 265.585938 333.511719 C 268.40625 331.269531 268.738281 327.515625 269.058594 323.886719 C 269.109375 323.304688 269.160156 322.730469 269.222656 322.171875 C 269.308594 321.390625 269.421875 320.609375 269.539062 319.828125 C 269.820312 317.957031 270.105469 316.023438 269.960938 314.085938 C 269.761719 311.453125 267.882812 307.589844 264.304688 306.640625 C 265.257812 305.289062 266.164062 303.898438 266.992188 302.460938 C 271.804688 294.113281 274.335938 283.808594 274.527344 271.839844 " fill-opacity="1" fill-rule="nonzero"/></g><path fill="#fffff6" d="M 175.9375 125.792969 C 176.710938 125.214844 177.675781 124.9375 178.679688 124.9375 C 180.253906 124.9375 181.933594 125.621094 183.148438 126.894531 C 183.167969 126.914062 183.191406 126.933594 183.214844 126.953125 C 183.242188 126.972656 185.78125 128.8125 186.40625 130.855469 C 187.070312 133.039062 186.882812 135.828125 185.234375 136.941406 C 183.613281 138.03125 181.410156 137.296875 179.667969 136.527344 C 176.320312 135.054688 174.859375 132.144531 174.605469 129.910156 C 174.40625 128.132812 174.914062 126.550781 175.9375 125.792969 Z M 179.285156 137.402344 C 180.496094 137.933594 181.914062 138.449219 183.292969 138.449219 C 184.152344 138.449219 184.996094 138.25 185.765625 137.730469 C 187.894531 136.296875 188.0625 133.019531 187.316406 130.578125 C 186.636719 128.347656 184.15625 126.460938 183.808594 126.203125 C 181.746094 124.0625 178.039062 123.039062 175.367188 125.027344 C 174.054688 126.003906 173.414062 127.867188 173.65625 130.015625 C 173.941406 132.515625 175.566406 135.765625 179.285156 137.402344 " fill-opacity="1" fill-rule="nonzero"/><path fill="#fffff6" d="M 183.445312 132.828125 C 183.46875 132.832031 183.496094 132.832031 183.519531 132.832031 C 183.75 132.832031 183.953125 132.664062 183.992188 132.429688 C 184.03125 132.171875 183.855469 131.925781 183.59375 131.882812 C 182.164062 131.660156 180.914062 130.152344 180.753906 128.453125 C 180.726562 128.1875 180.503906 128.007812 180.230469 128.023438 C 179.96875 128.046875 179.777344 128.28125 179.800781 128.542969 C 180.007812 130.691406 181.574219 132.53125 183.445312 132.828125 " fill-opacity="1" fill-rule="nonzero"/><path fill="#fffff6" d="M 207.855469 111.371094 C 207.800781 111.117188 207.550781 110.957031 207.289062 111.007812 C 204.480469 111.621094 201.722656 113.4375 199.308594 116.261719 C 197.101562 118.84375 195.398438 121.984375 193.976562 124.726562 C 193.652344 125.355469 193.257812 126.003906 192.792969 126.050781 C 192.285156 126.121094 191.808594 125.402344 191.597656 124.6875 C 191.519531 124.421875 191.457031 124.148438 191.398438 123.875 C 191.25 123.21875 191.101562 122.539062 190.722656 121.953125 C 190.578125 121.730469 190.28125 121.671875 190.0625 121.8125 C 189.839844 121.953125 189.777344 122.25 189.917969 122.472656 C 190.207031 122.914062 190.332031 123.480469 190.464844 124.082031 C 190.53125 124.375 190.597656 124.671875 190.679688 124.957031 C 190.988281 126 191.738281 127.007812 192.738281 127.007812 C 192.785156 127.007812 192.835938 127.003906 192.886719 127 C 193.929688 126.898438 194.511719 125.769531 194.824219 125.167969 C 196.222656 122.472656 197.894531 119.386719 200.035156 116.882812 C 201.621094 115.023438 204.203125 112.660156 207.492188 111.941406 C 207.75 111.886719 207.914062 111.628906 207.855469 111.371094 " fill-opacity="1" fill-rule="nonzero"/><path fill="#fffff6" d="M 196.433594 110.980469 C 196.472656 110.992188 196.515625 110.996094 196.554688 110.996094 C 196.765625 110.996094 196.960938 110.855469 197.015625 110.640625 C 197.085938 110.386719 196.933594 110.125 196.679688 110.058594 C 195.167969 109.65625 193.925781 108.421875 193.507812 106.914062 C 193.441406 106.660156 193.183594 106.511719 192.921875 106.582031 C 192.667969 106.652344 192.519531 106.914062 192.589844 107.167969 C 193.09375 108.996094 194.601562 110.492188 196.433594 110.980469 " fill-opacity="1" fill-rule="nonzero"/><path fill="#fffff6" d="M 208.351562 121.808594 C 206.726562 121.429688 205.414062 119.945312 205.234375 118.285156 C 205.207031 118.023438 204.976562 117.84375 204.710938 117.863281 C 204.445312 117.890625 204.257812 118.125 204.285156 118.390625 C 204.507812 120.441406 206.128906 122.269531 208.136719 122.738281 C 208.171875 122.746094 208.210938 122.75 208.246094 122.75 C 208.460938 122.75 208.65625 122.601562 208.710938 122.382812 C 208.769531 122.125 208.609375 121.867188 208.351562 121.808594 " fill-opacity="1" fill-rule="nonzero"/><path fill="#fffff6" d="M 198.039062 102.066406 C 199.195312 102.398438 200.367188 102.578125 201.488281 103.042969 C 202.082031 103.289062 202.65625 103.589844 203.269531 103.753906 C 203.886719 103.914062 204.570312 103.925781 205.125 103.597656 C 205.265625 103.511719 205.40625 103.394531 205.445312 103.226562 C 205.515625 102.90625 205.195312 102.65625 204.917969 102.515625 C 202.949219 101.503906 200.78125 100.839844 198.597656 100.949219 C 197.402344 101.011719 196.371094 101.589844 198.039062 102.066406 " fill-opacity="1" fill-rule="nonzero"/><path fill="#fffff6" d="M 214 116.148438 C 213.925781 114.949219 213.699219 113.785156 213.761719 112.570312 C 213.792969 111.929688 213.886719 111.289062 213.832031 110.652344 C 213.777344 110.019531 213.554688 109.375 213.058594 108.960938 C 212.933594 108.855469 212.773438 108.761719 212.601562 108.785156 C 212.277344 108.824219 212.152344 109.210938 212.113281 109.519531 C 211.820312 111.714844 211.925781 113.980469 212.761719 116 C 213.222656 117.101562 214.109375 117.878906 214 116.148438 " fill-opacity="1" fill-rule="nonzero"/><path fill="#fffff6" d="M 203.277344 155.65625 C 205.3125 155.121094 207.277344 154.21875 208.789062 152.769531 C 209.613281 151.976562 210.011719 150.929688 208.515625 151.644531 C 207.480469 152.144531 206.527344 152.753906 205.4375 153.136719 C 204.859375 153.339844 204.261719 153.488281 203.71875 153.765625 C 203.175781 154.039062 202.679688 154.464844 202.476562 155.039062 C 202.425781 155.1875 202.394531 155.359375 202.46875 155.496094 C 202.609375 155.761719 202.992188 155.730469 203.277344 155.65625 " fill-opacity="1" fill-rule="nonzero"/><path fill="#fffff6" d="M 195.226562 169.457031 C 196.574219 167.859375 197.351562 165.835938 197.753906 163.773438 C 197.808594 163.484375 197.816406 163.101562 197.539062 162.976562 C 197.398438 162.910156 197.230469 162.953125 197.085938 163.011719 C 196.523438 163.253906 196.132812 163.777344 195.894531 164.335938 C 195.652344 164.894531 195.542969 165.503906 195.378906 166.089844 C 195.066406 167.203125 194.515625 168.195312 194.089844 169.261719 C 193.46875 170.796875 194.492188 170.335938 195.226562 169.457031 " fill-opacity="1" fill-rule="nonzero"/><path fill="#fffff6" d="M 209.039062 166.28125 C 208.957031 166.53125 209.09375 166.800781 209.34375 166.882812 C 211.363281 167.542969 213.019531 169.488281 213.882812 172.21875 C 214.140625 173.035156 214.957031 173.640625 215.761719 173.640625 C 215.820312 173.640625 215.875 173.636719 215.933594 173.628906 C 216.527344 173.5625 217.042969 173.082031 217.191406 172.464844 C 217.308594 171.964844 217.195312 171.398438 216.878906 170.910156 C 216.734375 170.691406 216.4375 170.628906 216.21875 170.773438 C 216 170.914062 215.933594 171.210938 216.078125 171.429688 C 216.25 171.695312 216.320312 172 216.261719 172.242188 C 216.207031 172.46875 216.015625 172.660156 215.828125 172.679688 C 215.40625 172.71875 214.929688 172.371094 214.792969 171.933594 C 213.835938 168.90625 211.957031 166.734375 209.640625 165.972656 C 209.386719 165.894531 209.117188 166.03125 209.039062 166.28125 " fill-opacity="1" fill-rule="nonzero"/><path fill="#fffff6" d="M 193.929688 198.566406 C 194.050781 198.554688 194.164062 198.589844 194.28125 198.605469 C 194.378906 198.621094 194.480469 198.636719 194.578125 198.648438 C 194.644531 198.65625 194.710938 198.65625 194.777344 198.65625 C 195.101562 198.65625 195.371094 198.574219 195.585938 198.40625 C 195.792969 198.246094 195.929688 198.003906 195.957031 197.742188 C 195.980469 197.5 195.910156 197.269531 195.757812 197.085938 C 195.589844 196.886719 195.273438 196.832031 195.070312 197.007812 C 194.871094 197.175781 194.832031 197.449219 195.003906 197.652344 C 194.945312 197.695312 194.828125 197.710938 194.667969 197.695312 C 194.589844 197.691406 194.511719 197.675781 194.433594 197.664062 C 194.265625 197.636719 194.101562 197.613281 193.933594 197.613281 C 193.695312 197.625 193.445312 197.824219 193.449219 198.09375 C 193.449219 198.359375 193.675781 198.582031 193.929688 198.566406 " fill-opacity="1" fill-rule="nonzero"/></svg>